<svg width="73" height="73" viewBox="0 0 73 73" fill="none" xmlns="http://www.w3.org/2000/svg">
<rect x="0.5" y="0.5" width="72" height="72" rx="20.9795" fill="#7AE582"/>
<path d="M32.1033 16.1607C33.0912 16.0443 34.0866 16.3052 34.8903 16.8914C35.6941 17.4775 36.2468 18.3455 36.4378 19.3218L36.4898 19.6686L36.5001 19.8846V28.1923C36.5 28.612 36.3727 29.0218 36.1351 29.3677C35.8974 29.7136 35.5605 29.9794 35.1688 30.1301L34.9466 30.2028C33.8642 30.4842 32.8737 31.0427 32.0728 31.8233C31.2719 32.6039 30.6881 33.5797 30.379 34.6546C30.0699 35.7294 30.0461 36.8663 30.31 37.9531C30.5738 39.0399 31.1163 40.0393 31.8838 40.8527C32.6514 41.6662 33.6176 42.2657 34.6873 42.5921C35.757 42.9186 36.8933 42.9608 37.9843 42.7145C39.0752 42.4683 40.0832 41.9421 40.909 41.1878C41.7348 40.4335 42.3498 39.4771 42.6935 38.4128L42.7974 38.0535C42.903 37.6473 43.1292 37.2826 43.4462 37.0075C43.7632 36.7324 44.1561 36.5598 44.5731 36.5124L44.8078 36.5H52.7001C53.8018 36.5 54.8584 36.9376 55.6373 37.7166C56.4163 38.4956 56.854 39.5522 56.854 40.6538C56.8539 40.8118 56.8358 40.9693 56.8 41.1232C55.9688 44.7094 54.1994 48.0102 51.673 50.6876C49.1467 53.365 45.954 55.3229 42.4221 56.3606C38.8903 57.3984 35.146 57.4788 31.5728 56.5936C27.9996 55.7084 24.7259 53.8894 22.0869 51.3229C19.4479 48.7564 17.5385 45.5346 16.5541 41.9874C15.5698 38.4403 15.5459 34.6952 16.4849 31.1358C17.424 27.5764 19.2922 24.3305 21.8982 21.7305C24.5043 19.1306 27.7545 17.27 31.3161 16.3393L31.8769 16.2001L32.1054 16.1586L32.1033 16.1607Z" fill="#163300"/>
<path d="M42.2636 16.8231C42.4134 16.7882 42.5667 16.7701 42.7205 16.7691L42.9739 16.7837L43.2065 16.8252L43.4205 16.8875C46.2472 17.8826 48.8251 19.4776 50.9773 21.5631C53.1294 23.6485 54.8047 26.175 55.8882 28.969L56.1125 29.5796C56.2159 29.873 56.2519 30.1859 56.2181 30.4951C56.1843 30.8044 56.0815 31.1021 55.9172 31.3662C55.7529 31.6304 55.5314 31.8543 55.269 32.0214C55.0066 32.1884 54.71 32.2944 54.4012 32.3315L54.154 32.3461H44.8078C44.5079 32.3461 44.2114 32.2811 43.9389 32.1556C43.6664 32.0301 43.4244 31.8471 43.2294 31.6191C42.6627 30.9554 42.0447 30.3373 41.3809 29.7707C40.9879 29.4342 40.7346 28.9632 40.6706 28.4498L40.654 28.1922V18.8565L40.6665 18.6114C40.6768 18.5241 40.6914 18.4452 40.708 18.3705L40.7703 18.1565C40.8499 17.9309 40.968 17.7208 41.1192 17.5355L41.2667 17.3694C41.329 17.3112 41.3872 17.2614 41.4474 17.2136L41.6343 17.0828L41.8171 16.9789L42.031 16.8896L42.2636 16.8231Z" fill="#163300"/>
</svg>
